<svg width="66" height="112" viewBox="0 0 66 112" fill="none" xmlns="http://www.w3.org/2000/svg">
<path fill-rule="evenodd" clip-rule="evenodd" d="M14.7433 41.9365C14.0508 40.9294 12.543 40.9294 11.8504 41.9365C9.41817 45.4735 8.16297 49.6663 8.25822 53.9354L8.68467 88.0636C10.1071 86.6111 11.5773 85.2443 12.975 83.9449C14.9448 82.1135 18.9521 80.416 20.297 78.8017L18.797 53.9354C18.8921 49.6663 17.1756 45.4735 14.7433 41.9365Z" fill="white"/>
<path fill-rule="evenodd" clip-rule="evenodd" d="M51.3529 41.9365C52.0455 40.9294 53.5533 40.9294 54.2458 41.9365C56.6781 45.4735 57.9333 49.6663 57.838 53.9354L57.4116 88.0636C55.9891 86.6111 54.519 85.2443 53.1213 83.9449C51.1515 82.1135 47.1441 80.416 45.7992 78.8017L47.2992 53.9354C47.2041 49.6663 48.9207 45.4735 51.3529 41.9365Z" fill="white"/>
<path fill-rule="evenodd" clip-rule="evenodd" d="M14.7433 41.9363C17.1765 63.1012 14.7433 69.9766 9.4505 74.3328C10.3501 75.5881 20.297 71.3015 20.297 71.3015L18.797 53.9352C18.8921 49.6661 17.1756 45.4733 14.7433 41.9363Z" fill="#CEE8F2"/>
<path fill-rule="evenodd" clip-rule="evenodd" d="M51.3529 41.9363C48.9197 63.1012 51.3529 69.9766 56.6458 74.3328C55.7461 75.5881 45.7992 71.3015 45.7992 71.3015L47.2992 53.9352C47.2041 49.6661 48.9207 45.4733 51.3529 41.9363Z" fill="#CEE8F2"/>
<path fill-rule="evenodd" clip-rule="evenodd" d="M14.7433 41.9365C14.0508 40.9294 12.543 40.9294 11.8504 41.9365C9.41817 45.4735 8.16297 49.6663 8.25822 53.9354L8.68467 88.0636C10.1071 86.6111 11.5773 85.2443 12.975 83.9449C14.9448 82.1135 18.9521 80.416 20.297 78.8017L18.797 53.9354C18.8921 49.6663 17.1756 45.4735 14.7433 41.9365Z" stroke="#205080" stroke-width="1.5"/>
<path fill-rule="evenodd" clip-rule="evenodd" d="M51.3529 41.9365C52.0455 40.9294 53.5533 40.9294 54.2458 41.9365C56.6781 45.4735 57.9333 49.6663 57.838 53.9354L57.4116 88.0636C55.9891 86.6111 54.519 85.2443 53.1213 83.9449C51.1515 82.1135 47.1441 80.416 45.7992 78.8017L47.2992 53.9354C47.2041 49.6663 48.9207 45.4735 51.3529 41.9365Z" stroke="#205080" stroke-width="1.5"/>
<path fill-rule="evenodd" clip-rule="evenodd" d="M19.8815 66.0139C18.5726 67.6968 15.2387 69.4683 13.2529 71.3868C7.78808 76.6656 1.17203 83.0569 1.17203 91.774V105.785C1.17203 107.037 2.65058 107.786 3.70043 107.103C6.88253 105.034 14.2351 101.728 20.824 100.426L19.8815 66.0139Z" fill="white"/>
<path fill-rule="evenodd" clip-rule="evenodd" d="M46.2147 66.0139C47.5236 67.6968 50.8575 69.4683 52.8433 71.3868C58.3081 76.6656 64.9242 83.0569 64.9242 91.774V105.785C64.9242 107.037 63.4456 107.786 62.3958 107.103C59.2137 105.034 51.8611 101.728 45.2722 100.426L46.2147 66.0139Z" fill="white"/>
<path fill-rule="evenodd" clip-rule="evenodd" d="M19.8817 66.0139C18.5728 67.6968 16.7329 68.6851 16.7329 68.6851C16.7329 68.6851 17.2113 79.018 16.5567 85.6389C15.9021 92.2597 14.4183 102.14 14.4183 102.14L20.8242 100.426L19.8817 66.0139Z" fill="#CEE8F2"/>
<path fill-rule="evenodd" clip-rule="evenodd" d="M46.2145 66.0139C47.5234 67.6968 49.3633 68.6851 49.3633 68.6851C49.3633 68.6851 48.8849 79.018 49.5395 85.6389C50.1941 92.2597 51.6779 102.14 51.6779 102.14L45.2721 100.426L46.2145 66.0139Z" fill="#CEE8F2"/>
<path fill-rule="evenodd" clip-rule="evenodd" d="M19.8815 66.0139C18.5726 67.6968 15.2387 69.4683 13.2529 71.3868C7.78808 76.6656 1.17203 83.0569 1.17203 91.774V105.785C1.17203 107.037 2.65058 107.786 3.70043 107.103C6.88253 105.034 14.2351 101.728 20.824 100.426L19.8815 66.0139Z" stroke="#205080" stroke-width="1.5"/>
<path fill-rule="evenodd" clip-rule="evenodd" d="M46.2147 66.0139C47.5236 67.6968 50.8575 69.4683 52.8433 71.3868C58.3081 76.6656 64.9242 83.0569 64.9242 91.774V105.785C64.9242 107.037 63.4456 107.786 62.3958 107.103C59.2137 105.034 51.8611 101.728 45.2722 100.426L46.2147 66.0139Z" stroke="#205080" stroke-width="1.5"/>
<path fill-rule="evenodd" clip-rule="evenodd" d="M36.5938 2.53129C34.8682 0.196214 31.3756 0.196289 29.65 2.53143C22.8562 11.7252 17.7941 22.9079 18.0187 34.3373L20.8252 105.322C20.9346 110.891 29.2855 110.241 33.1219 110.733C36.9582 110.241 45.3091 110.891 45.4186 105.322L48.2257 34.3379C48.4504 22.9082 43.388 11.7251 36.5938 2.53129Z" fill="#CEE8F2"/>
<path d="M29.6507 2.53261C31.3764 0.19782 34.8685 0.197758 36.5941 2.53261C38.609 5.25914 40.4697 8.16179 42.0872 11.1928C44.1854 17.2154 45.4406 23.6314 45.3382 30.1264L41.597 104.11C41.4879 108.036 24.756 108.036 24.6468 104.11L20.9066 30.1264C20.8043 23.6323 22.058 17.2167 24.1556 11.1947C25.7733 8.16294 27.6354 5.25983 29.6507 2.53261Z" fill="white"/>
<circle cx="33.1223" cy="38.7192" r="5.26904" fill="url(#paint0_linear_1_253)"/>
<path fill-rule="evenodd" clip-rule="evenodd" d="M36.5938 2.53129C34.8682 0.196214 31.3756 0.196289 29.65 2.53143C22.8562 11.7252 17.7941 22.9079 18.0187 34.3373L20.8252 105.322C20.9423 111.284 33.1219 110.733 33.1219 110.733C33.1219 110.733 45.3014 111.284 45.4186 105.322L48.2257 34.3379C48.4504 22.9082 43.388 11.7251 36.5938 2.53129Z" stroke="#205080" stroke-width="1.5"/>
<path d="M33.1221 31.2432C36.8313 31.2432 39.8389 34.2498 39.8389 37.959C39.8387 41.6681 36.8312 44.6748 33.1221 44.6748C29.4131 44.6746 26.4064 41.668 26.4062 37.959C26.4062 34.2499 29.413 31.2433 33.1221 31.2432ZM33.1221 33.4502C30.2122 33.4503 27.8535 35.8098 27.8535 38.7197C27.8538 41.6294 30.2123 43.9881 33.1221 43.9883C36.0319 43.9883 38.3913 41.6295 38.3916 38.7197C38.3916 35.8097 36.0321 33.4502 33.1221 33.4502Z" fill="#205080"/>
<defs>
<linearGradient id="paint0_linear_1_253" x1="33.1223" y1="33.4502" x2="33.1223" y2="43.9883" gradientUnits="userSpaceOnUse">
<stop stop-color="#2990CC"/>
<stop offset="1" stop-color="#0F6699"/>
</linearGradient>
</defs>
</svg>
